<svg id="visual" viewBox="0 0 900 600" width="900" height="600" xmlns="http://www.w3.org/2000/svg" xmlns:xlink="http://www.w3.org/1999/xlink" version="1.1"><rect x="0" y="0" width="900" height="600" fill="#001122"></rect><path d="M0 324L69 324L69 334L138 334L138 230L208 230L208 256L277 256L277 305L346 305L346 317L415 317L415 231L485 231L485 334L554 334L554 328L623 328L623 240L692 240L692 265L762 265L762 308L831 308L831 325L900 325L900 325L900 601L900 601L831 601L831 601L762 601L762 601L692 601L692 601L623 601L623 601L554 601L554 601L485 601L485 601L415 601L415 601L346 601L346 601L277 601L277 601L208 601L208 601L138 601L138 601L69 601L69 601L0 601Z" fill="#6100ff"></path><path d="M0 325L69 325L69 347L138 347L138 353L208 353L208 239L277 239L277 386L346 386L346 284L415 284L415 357L485 357L485 372L554 372L554 355L623 355L623 371L692 371L692 257L762 257L762 383L831 383L831 306L900 306L900 316L900 601L900 601L831 601L831 601L762 601L762 601L692 601L692 601L623 601L623 601L554 601L554 601L485 601L485 601L415 601L415 601L346 601L346 601L277 601L277 601L208 601L208 601L138 601L138 601L69 601L69 601L0 601Z" fill="#5301ec"></path><path d="M0 314L69 314L69 363L138 363L138 308L208 308L208 421L277 421L277 384L346 384L346 380L415 380L415 333L485 333L485 368L554 368L554 381L623 381L623 379L692 379L692 419L762 419L762 302L831 302L831 351L900 351L900 350L900 601L900 601L831 601L831 601L762 601L762 601L692 601L692 601L623 601L623 601L554 601L554 601L485 601L485 601L415 601L415 601L346 601L346 601L277 601L277 601L208 601L208 601L138 601L138 601L69 601L69 601L0 601Z" fill="#4502d9"></path><path d="M0 367L69 367L69 438L138 438L138 414L208 414L208 465L277 465L277 389L346 389L346 417L415 417L415 437L485 437L485 421L554 421L554 391L623 391L623 355L692 355L692 394L762 394L762 461L831 461L831 423L900 423L900 422L900 601L900 601L831 601L831 601L762 601L762 601L692 601L692 601L623 601L623 601L554 601L554 601L485 601L485 601L415 601L415 601L346 601L346 601L277 601L277 601L208 601L208 601L138 601L138 601L69 601L69 601L0 601Z" fill="#3802c6"></path><path d="M0 484L69 484L69 467L138 467L138 500L208 500L208 399L277 399L277 489L346 489L346 431L415 431L415 404L485 404L485 479L554 479L554 421L623 421L623 467L692 467L692 438L762 438L762 478L831 478L831 472L900 472L900 496L900 601L900 601L831 601L831 601L762 601L762 601L692 601L692 601L623 601L623 601L554 601L554 601L485 601L485 601L415 601L415 601L346 601L346 601L277 601L277 601L208 601L208 601L138 601L138 601L69 601L69 601L0 601Z" fill="#2a01b3"></path><path d="M0 456L69 456L69 536L138 536L138 477L208 477L208 477L277 477L277 531L346 531L346 526L415 526L415 487L485 487L485 495L554 495L554 524L623 524L623 520L692 520L692 481L762 481L762 480L831 480L831 528L900 528L900 517L900 601L900 601L831 601L831 601L762 601L762 601L692 601L692 601L623 601L623 601L554 601L554 601L485 601L485 601L415 601L415 601L346 601L346 601L277 601L277 601L208 601L208 601L138 601L138 601L69 601L69 601L0 601Z" fill="#1c01a1"></path><path d="M0 563L69 563L69 509L138 509L138 560L208 560L208 541L277 541L277 558L346 558L346 542L415 542L415 541L485 541L485 570L554 570L554 551L623 551L623 551L692 551L692 545L762 545L762 524L831 524L831 530L900 530L900 523L900 601L900 601L831 601L831 601L762 601L762 601L692 601L692 601L623 601L623 601L554 601L554 601L485 601L485 601L415 601L415 601L346 601L346 601L277 601L277 601L208 601L208 601L138 601L138 601L69 601L69 601L0 601Z" fill="#0b008f"></path></svg>